<?xml version="1.0" encoding="UTF-8"?>
<svg width="24px" height="24px" viewBox="0 0 24 24" version="1.1" xmlns="http://www.w3.org/2000/svg" xmlns:xlink="http://www.w3.org/1999/xlink">
    <!-- Generator: Sketch 52.5 (67469) - http://www.bohemiancoding.com/sketch -->
    <title>修改 copy 16</title>
    <desc>Created with Sketch.</desc>
    <g id="页面-1" stroke="none" stroke-width="1" fill="none" fill-rule="evenodd">
        <g id="选课中心-新建课程" transform="translate(-371.000000, -447.000000)" fill="#EF334E" fill-rule="nonzero">
            <g id="内容区" transform="translate(221.000000, 80.000000)">
                <g id="表格" transform="translate(20.000000, 20.000000)">
                    <g id="修改_export" transform="translate(130.000000, 347.000000)">
                        <path d="M7.41623718,15.7076957 C7.36643807,15.8965071 7.41739868,16.100593 7.55252049,16.243637 C7.65374117,16.3451921 7.7870046,16.401449 7.92859814,16.401449 C7.9756278,16.401449 8.02266836,16.3957445 8.0687761,16.3828718 C10.1991544,15.7916181 11.2732568,15.4866027 11.2910833,15.4678253 L19.6167973,6.86032372 C19.8644136,6.60428936 20,6.25571452 20,5.87617027 C20,5.44656905 19.8233801,5.0164837 19.514858,4.6979588 L18.7285801,3.8835592 C18.4200761,3.56409982 18.0036437,3.38146206 17.5885943,3.38146206 C17.2215255,3.38146206 16.8844197,3.5216426 16.6358815,3.77674997 L8.31111119,12.3876105 C8.30527468,12.3930022 8.00698334,13.4996973 7.41623718,15.7076957 Z M17.9429047,6.49095978 L16.8778076,5.47691428 L17.54876,4.88774091 C17.6308146,4.80229612 17.8395769,4.8783939 17.9336901,4.97602217 L18.4787229,5.53955831 C18.5313655,5.59398188 18.5313721,5.65729149 18.5313721,5.72815918 C18.5313721,5.78684338 18.5294157,5.86079144 18.4926561,5.89881398 L17.9429047,6.49095978 Z M10.6209106,11.9554443 L15.8485718,6.51263428 L17.0259399,7.55657959 L11.6966553,13.0291748 L10.6209106,11.9554443 Z M8.78039551,15.0698242 L9.48120117,13.2332764 L10.5942383,14.2664185 L8.78039551,15.0698242 Z M18.0361938,11.0240119 L18.0124512,17.0488779 C18.0083618,17.8341064 17.9450684,18.0407104 17.0170227,18.0168457 L5.88727004,18.0424194 C5.18151855,18.0424194 4.99249268,17.7927856 4.99249268,17.0488779 L5.02520752,5.95067928 C5.02520752,5.27105713 5.23486328,4.98822021 5.88727006,4.98822021 L13.0823975,5.0279541 C13.3987416,5.0279541 14.0065918,4.67980957 14.0065918,4.02050781 C14.0065918,3.36120605 13.3783558,3.05688477 13.0620117,3.05688477 L4.79988568,3.00000002 C3.80724645,3.00000002 3,3.83442917 3,4.86103236 L3,18.1394743 C3,19.1665241 3.80724645,20 4.79988568,20 L18.1037175,20 C19.0965926,20 20.0083618,19.1665278 20.0083618,18.1394743 L19.9781494,11.0206717 C19.9762801,10.694063 19.7260742,10.0211182 19.0306396,9.99938965 C18.2788086,9.99645996 18.0371013,10.694063 18.0361938,11.0240119 Z" id="Shape"></path>
                    </g>
                </g>
            </g>
        </g>
    </g>
</svg>