<?xml version="1.0" encoding="UTF-8"?>
<svg width="24px" height="24px" viewBox="0 0 24 24" version="1.1" xmlns="http://www.w3.org/2000/svg" xmlns:xlink="http://www.w3.org/1999/xlink">
    <!-- Generator: Sketch 49.3 (51167) - http://www.bohemiancoding.com/sketch -->
    <title>音频</title>
    <desc>Created with Sketch.</desc>
    <defs></defs>
    <g id="Page-1" stroke="none" stroke-width="1" fill="none" fill-rule="evenodd">
        <g id="房间控制-选中房间" transform="translate(-1187.000000, -180.000000)" fill="#EF334E">
            <g id="内容区" transform="translate(200.000000, 50.000000)">
                <g id="表格" transform="translate(20.000000, 72.000000)">
                    <g id="音频_export" transform="translate(967.000000, 58.000000)">
                        <g id="音频" transform="translate(5.000000, 2.000000)">
                            <path d="M6,15.9525405 C2.60800941,15.4693033 1.55383485e-16,12.5529045 1.77635684e-15,9.0273726 L1.77635684e-15,8.72460938 L0.00262050014,8.72460938 C0.0160321545,8.32217227 0.346496373,8.00004578 0.752197266,8.00004578 C1.16641083,8.00004578 1.50219727,8.33583221 1.50219727,8.75004578 C1.50219727,8.79837634 1.49762577,8.84563917 1.4888916,8.89142546 L1.4888916,8.90511844 C1.4888916,11.9426846 3.95132548,14.4051184 6.9888916,14.4051184 C10.0264577,14.4051184 12.4888916,11.9426846 12.4888916,8.90511844 L12.4888916,8.72460938 L12.4944723,8.72460938 C12.507884,8.32217227 12.8383482,8.00004578 13.2440491,8.00004578 C13.6582626,8.00004578 13.9940491,8.33583221 13.9940491,8.75004578 C13.9940491,8.77333945 13.9929872,8.79638511 13.9909091,8.81913697 L13.9909091,9.0273726 C13.9909091,12.5497543 11.3875584,15.4640908 8,15.9512393 L8,16.9732056 L10,16.9732056 C10.5522847,16.9732056 11,17.4209208 11,17.9732056 C11,18.5254903 10.5522847,18.9732056 10,18.9732056 L4,18.9732056 C3.44771525,18.9732056 3,18.5254903 3,17.9732056 C3,17.4209208 3.44771525,16.9732056 4,16.9732056 L6,16.9732056 L6,15.9525405 Z M7,-2.66453526e-15 C9.209139,-3.51443672e-15 11,1.790861 11,4 L11,8.9597168 C11,11.1688558 9.209139,12.9597168 7,12.9597168 C4.790861,12.9597168 3,11.1688558 3,8.9597168 L3,4 C3,1.790861 4.790861,-2.70281222e-15 7,-3.10862447e-15 Z"></path>
                        </g>
                    </g>
                </g>
            </g>
        </g>
    </g>
</svg>