<?xml version="1.0" encoding="UTF-8"?>
<svg width="24px" height="24px" viewBox="0 0 24 24" version="1.1" xmlns="http://www.w3.org/2000/svg" xmlns:xlink="http://www.w3.org/1999/xlink">
    <!-- Generator: Sketch 49.3 (51167) - http://www.bohemiancoding.com/sketch -->
    <title>授权</title>
    <desc>Created with Sketch.</desc>
    <defs></defs>
    <g id="Page-1" stroke="none" stroke-width="1" fill="none" fill-rule="evenodd">
        <g id="房间管理" transform="translate(-1205.000000, -181.000000)" fill="#EF334E" fill-rule="nonzero">
            <g id="授权_export" transform="translate(1205.000000, 181.000000)">
                <path d="M20.9049807,9.82203742 L17.782883,3.46777548 C17.642248,3.17962579 17.360978,3.00000003 17.0550968,3 L6.94343811,3 C6.63755692,3 6.35628686,3.17962579 6.21565184,3.46777548 L3.09355417,9.82203742 C2.93533976,10.1438669 2.98104613,10.5330561 3.2060622,10.806237 L11.3839892,20.7043659 C11.5386877,20.8952183 11.7637038,21 12.0027833,21 C12.2418629,21 12.463363,20.8914761 12.6215774,20.7043659 L20.7995044,10.806237 C21.0210046,10.5330561 21.0631951,10.143867 20.9049807,9.82203742 Z M16.8039154,9.76229379 L12.5399105,15.4176857 C12.4024627,15.6010835 12.2056625,15.7058824 11.996367,15.7058824 C11.7901953,15.7058824 11.5933951,15.6010835 11.4528235,15.4176857 L7.18881859,9.76229379 C6.91704684,9.40298365 6.94203736,8.84904718 7.24192342,8.52716515 C7.54180947,8.20528313 8.00413382,8.23148287 8.27278174,8.590793 L11.996367,13.5275646 L15.7199522,8.590793 C15.8948858,8.35499571 16.1604099,8.24645412 16.4196864,8.31382478 C16.6789629,8.37745263 16.8851345,8.60576428 16.9663537,8.90518939 C17.044449,9.2046145 16.9850965,9.53023932 16.8039154,9.76229379 Z" id="授权"></path>
            </g>
        </g>
    </g>
</svg>