<?xml version="1.0" encoding="UTF-8"?>
<svg width="24px" height="24px" viewBox="0 0 24 24" version="1.1" xmlns="http://www.w3.org/2000/svg" xmlns:xlink="http://www.w3.org/1999/xlink">
    <!-- Generator: Sketch 49.3 (51167) - http://www.bohemiancoding.com/sketch -->
    <title>视频-灰</title>
    <desc>Created with Sketch.</desc>
    <defs></defs>
    <g id="Page-1" stroke="none" stroke-width="1" fill="none" fill-rule="evenodd">
        <g id="房间控制-选中房间" transform="translate(-1105.000000, -380.000000)" fill="#CCCCCC" fill-rule="nonzero">
            <g id="内容区" transform="translate(200.000000, 50.000000)">
                <g id="表格" transform="translate(20.000000, 72.000000)">
                    <g id="视频-灰_export" transform="translate(885.000000, 258.000000)">
                        <path d="M16.1226994,18.1742465 C14.8711656,18.7261514 13.4723926,19.0352182 12,19.0352182 C10.5521472,19.0352182 9.20245399,18.7261514 7.97546012,18.2183989 L7.01840491,19.1014468 C6.25766871,19.8078852 6.82208589,21 7.90184049,21 L16.3435583,21 C17.4233129,21 17.9631902,19.8299614 17.202454,19.1455992 L16.1226994,18.1742465 Z M11.8680982,6.27099981 C13.8072873,6.27099981 15.3680982,7.79725558 15.3680982,9.69351276 C15.3680982,11.5897699 13.7836387,13.1391508 11.8680982,13.1391508 C9.95255762,13.1391508 8.36809816,11.612895 8.36809816,9.71663785 C8.36809816,7.82038067 9.92890897,6.27099981 11.8680982,6.27099981 Z M12,2 C7.58282209,2 4,5.51533758 4,9.84931541 C4,14.1832932 7.58282209,17.6986308 12,17.6986308 C16.4171779,17.6986308 20,14.1832932 20,9.84931541 C20,5.51533758 16.4171779,2 12,2 Z" id="视频-灰"></path>
                    </g>
                </g>
            </g>
        </g>
    </g>
</svg>