<?xml version="1.0" encoding="UTF-8"?>
<svg width="24px" height="24px" viewBox="0 0 24 24" version="1.1" xmlns="http://www.w3.org/2000/svg" xmlns:xlink="http://www.w3.org/1999/xlink">
    <!-- Generator: Sketch 51.2 (57519) - http://www.bohemiancoding.com/sketch -->
    <title>详情</title>
    <desc>Created with Sketch.</desc>
    <defs></defs>
    <g id="Page-1" stroke="none" stroke-width="1" fill="none" fill-rule="evenodd">
        <g id="班级管理" transform="translate(-1029.000000, -199.000000)">
            <g id="内容区">
                <g id="表格" transform="translate(220.000000, 122.000000)">
                    <g id="录制_export" transform="translate(808.000000, 77.000000)">
                        <g id="详情" fill="#EF334E" fill-rule="nonzero">
                            <path d="M16.4007204,3 L17.3566407,3 C17.438896,3.04478937 17.5161939,3.10198032 17.5857864,3.17157288 L21.8284271,7.41421356 C21.8980197,7.48380611 21.9552106,7.56110403 22,7.64336107 L22,8.59927962 L22,19 C22,20.1045695 21.1045695,21 20,21 L7,21 C5.8954305,21 5,20.1045695 5,19 L5,5 C5,3.8954305 5.8954305,3 7,3 L16.4007204,3 Z M19.5857864,8 L17,5.41421356 L17,7 C17,7.55228475 17.4477153,8 18,8 L19.5857864,8 Z M20,10 L17,10 C15.8954305,10 15,9.1045695 15,8 L15,5 L8.5,5 C7.67157288,5 7,5.67157288 7,6.5 L7,17.5 C7,18.3284271 7.67157288,19 8.5,19 L18.5,19 C19.3284271,19 20,18.3284271 20,17.5 L20,10 Z M10,15 L17,15 C17.5522847,15 18,15.4477153 18,16 C18,16.5522847 17.5522847,17 17,17 L10,17 C9.44771525,17 9,16.5522847 9,16 C9,15.4477153 9.44771525,15 10,15 Z M10,11 L17,11 C17.5522847,11 18,11.4477153 18,12 C18,12.5522847 17.5522847,13 17,13 L10,13 C9.44771525,13 9,12.5522847 9,12 C9,11.4477153 9.44771525,11 10,11 Z" id="Combined-Shape"></path>
                        </g>
                        <g id="详情-copy-4"></g>
                    </g>
                </g>
            </g>
        </g>
    </g>
</svg>