<?xml version="1.0" encoding="UTF-8"?>
<svg width="24px" height="24px" viewBox="0 0 24 24" version="1.1" xmlns="http://www.w3.org/2000/svg" xmlns:xlink="http://www.w3.org/1999/xlink">
    <!-- Generator: Sketch 49.3 (51167) - http://www.bohemiancoding.com/sketch -->
    <title>垃圾筒</title>
    <desc>Created with Sketch.</desc>
    <defs></defs>
    <g id="Page-1" stroke="none" stroke-width="1" fill="none" fill-rule="evenodd">
        <g id="部门管理" transform="translate(-1283.000000, -150.000000)" fill="#FF8E00">
            <g id="内容区" transform="translate(200.000000, 50.000000)">
                <g id="管理部门" transform="translate(20.000000, 72.000000)">
                    <g id="垃圾筒_export" transform="translate(1063.000000, 28.000000)">
                        <g id="垃圾筒" transform="translate(3.000000, 3.000000)">
                            <path d="M4,3 L4,2 C4,0.8954305 4.8954305,2.02906125e-16 6,0 L12,0 C13.1045695,-2.02906125e-16 14,0.8954305 14,2 L14,3 L17,3 C17.5522847,3 18,3.44771525 18,4 C18,4.55228475 17.5522847,5 17,5 L16,5 L16,16 C16,17.1045695 15.1045695,18 14,18 L4,18 C2.8954305,18 2,17.1045695 2,16 L2,5 L1,5 C0.44771525,5 6.76353751e-17,4.55228475 0,4 C-6.76353751e-17,3.44771525 0.44771525,3 1,3 L4,3 Z M14,5 L4,5 L4,15.5 C4,15.7761424 4.22385763,16 4.5,16 L13.5,16 C13.7761424,16 14,15.7761424 14,15.5 L14,5 Z M7,7 C7.55228475,7 8,7.44771525 8,8 L8,12 C8,12.5522847 7.55228475,13 7,13 C6.44771525,13 6,12.5522847 6,12 L6,8 C6,7.44771525 6.44771525,7 7,7 Z M11,7 C11.5522847,7 12,7.44771525 12,8 L12,12 C12,12.5522847 11.5522847,13 11,13 C10.4477153,13 10,12.5522847 10,12 L10,8 C10,7.44771525 10.4477153,7 11,7 Z M6.2,2 C6.08954305,2 6,2.08954305 6,2.2 L6,3 L12,3 L12,2.2 C12,2.08954305 11.9104569,2 11.8,2 L6.2,2 Z" id="Combined-Shape"></path>
                        </g>
                    </g>
                </g>
            </g>
        </g>
    </g>
</svg>