<?xml version="1.0" encoding="UTF-8"?>
<svg width="24px" height="24px" viewBox="0 0 24 24" version="1.1" xmlns="http://www.w3.org/2000/svg" xmlns:xlink="http://www.w3.org/1999/xlink">
    <!-- Generator: Sketch 49.3 (51167) - http://www.bohemiancoding.com/sketch -->
    <title>修改</title>
    <desc>Created with Sketch.</desc>
    <defs></defs>
    <g id="修改" stroke="none" stroke-width="1" fill="none" fill-rule="evenodd">
        <g transform="translate(3.000000, 4.000000)" fill="#EF334E" fill-rule="nonzero" id="Shape">
            <path d="M4.41623718,12.7076957 C4.36643807,12.8965071 4.41739868,13.100593 4.55252049,13.243637 C4.65374117,13.3451921 4.7870046,13.401449 4.92859814,13.401449 C4.9756278,13.401449 5.02266836,13.3957445 5.0687761,13.3828718 C7.19915437,12.7916181 8.27325677,12.4866027 8.29108329,12.4678253 L16.6167973,3.86032372 C16.8644136,3.60428936 17,3.25571452 17,2.87617027 C17,2.44656905 16.8233801,2.0164837 16.514858,1.6979588 L15.7285801,0.883559197 C15.4200761,0.564099823 15.0036437,0.381462062 14.5885943,0.381462062 C14.2215255,0.381462062 13.8844197,0.521642597 13.6358815,0.776749972 L5.31111119,9.38761046 C5.30527468,9.39300222 5.00698334,10.4996973 4.41623718,12.7076957 Z M14.9429047,3.49095978 L13.8778076,2.47691428 L14.54876,1.88774091 C14.6308146,1.80229612 14.8395769,1.8783939 14.9336901,1.97602217 L15.4787229,2.53955831 C15.5313655,2.59398188 15.5313721,2.65729149 15.5313721,2.72815918 C15.5313721,2.78684338 15.5294157,2.86079144 15.4926561,2.89881398 L14.9429047,3.49095978 Z M7.62091064,8.95544434 L12.8485718,3.51263428 L14.0259399,4.55657959 L8.69665527,10.0291748 L7.62091064,8.95544434 Z M5.78039551,12.0698242 L6.48120117,10.2332764 L7.59423828,11.2664185 L5.78039551,12.0698242 Z M15.0361938,8.02401187 L15.0124512,14.0488779 C15.0083618,14.8341064 14.9450684,15.0407104 14.0170227,15.0168457 L2.88727004,15.0424194 C2.18151855,15.0424194 1.99249268,14.7927856 1.99249268,14.0488779 L2.02520752,2.95067928 C2.02520752,2.27105713 2.23486328,1.98822021 2.88727006,1.98822021 L10.0823975,2.0279541 C10.3987416,2.0279541 11.0065918,1.67980957 11.0065918,1.02050781 C11.0065918,0.361206055 10.3783558,0.0568847656 10.0620117,0.0568847656 L1.79988568,1.87775182e-08 C0.807246454,1.87775182e-08 0,0.834429173 0,1.86103236 L0,15.1394743 C0,16.1665241 0.807246454,17 1.79988568,17 L15.1037175,17 C16.0965926,17 17.0083618,16.1665278 17.0083618,15.1394743 L16.9781494,8.02067174 C16.9762801,7.69406298 16.7260742,7.02111816 16.0306396,6.99938965 C15.2788086,6.99645996 15.0371013,7.69406298 15.0361938,8.02401187 Z"></path>
        </g>
    </g>
</svg>