<?xml version="1.0" encoding="UTF-8"?>
<svg width="24px" height="24px" viewBox="0 0 24 24" version="1.1" xmlns="http://www.w3.org/2000/svg" xmlns:xlink="http://www.w3.org/1999/xlink">
    <!-- Generator: Sketch 49.3 (51167) - http://www.bohemiancoding.com/sketch -->
    <title>呼入</title>
    <desc>Created with Sketch.</desc>
    <defs></defs>
    <g id="Page-1" stroke="none" stroke-width="1" fill="none" fill-rule="evenodd">
        <g id="房间控制-选中房间" transform="translate(-934.000000, -180.000000)" fill="#EF334E" fill-rule="nonzero">
            <g id="内容区" transform="translate(200.000000, 50.000000)">
                <g id="表格" transform="translate(20.000000, 72.000000)">
                    <g id="呼入" transform="translate(714.000000, 58.000000)">
                        <g id="呼入_export">
                            <path d="M19.7310136,18.3345869 C20.4326431,17.1234299 20.0440336,16.193143 18.8015369,15.2623719 C17.3410077,14.1682016 15.9136485,13.4321535 14.8873085,14.6111456 C14.8873085,14.6111456 13.7980716,15.8973628 10.5928724,12.8874642 C6.86574184,9.36305322 8.43002006,8.11307898 8.43002006,8.11307898 C9.72631835,6.82028606 8.90223511,5.85594813 7.81507935,4.39532127 C6.72805206,2.93479636 5.62984823,2.47243105 4.05334005,3.72867516 C1.0153264,6.1494855 5.29904846,11.8335129 7.46500968,14.0437725 L7.46490691,14.0438745 C7.46490691,14.0438745 10.758465,17.4233391 12.8309801,18.5483235 L13.9396667,19.1633069 C15.5299721,19.9728604 17.316111,20.3434204 18.5736897,19.5917486 C18.5737154,19.5917486 19.179869,19.2824091 19.7310136,18.3345869 Z M15.5121668,8.83883019 C16.2694991,8.05236821 16.7850843,7.5931888 17.1369525,7.30561546 C19.2895019,5.54513038 21,6.27597903 21,6.27597903 C18.0579247,3.22216581 13.7773115,7.03386974 13.7773115,7.03386974 L12.3804501,5.5848396 L11.2529047,11.5764478 L17.0222067,10.4070135 L15.5121668,8.83883019 Z" id="呼入"></path>
                        </g>
                    </g>
                </g>
            </g>
        </g>
    </g>
</svg>