<?xml version="1.0" encoding="UTF-8"?>
<svg width="24px" height="24px" viewBox="0 0 24 24" version="1.1" xmlns="http://www.w3.org/2000/svg" xmlns:xlink="http://www.w3.org/1999/xlink">
    <!-- Generator: Sketch 49.3 (51167) - http://www.bohemiancoding.com/sketch -->
    <title>进入</title>
    <desc>Created with Sketch.</desc>
    <defs></defs>
    <g id="Page-1" stroke="none" stroke-width="1" fill="none" fill-rule="evenodd">
        <g id="房间控制" transform="translate(-1282.000000, -179.000000)" fill="#EF334E">
            <g id="内容区" transform="translate(200.000000, 50.000000)">
                <g id="表格" transform="translate(20.000000, 72.000000)">
                    <g id="进入_export" transform="translate(1062.000000, 57.000000)">
                        <g id="进入" transform="translate(3.000000, 3.000000)">
                            <path d="M5,16 L15,16 C15.5522847,16 16,15.5522847 16,15 L16,3 C16,2.44771525 15.5522847,2 15,2 L5,2 C4.44771525,2 4,1.55228475 4,1 C4,0.44771525 4.44771525,0 5,0 L16,0 C17.1045695,0 18,0.8954305 18,2 L18,16 C18,17.1045695 17.1045695,18 16,18 L4.5,18 L5,18 C4.44771525,18 4,17.5522847 4,17 C4,16.4477153 4.44771525,16 5,16 Z M9.5666069,10 L1,10 C0.44771525,10 0,9.55228475 0,9 C0,8.44771525 0.44771525,8 1,8 L9.5666069,8 L7.031073,5.46446609 C6.6405487,5.0739418 6.6405487,4.44077682 7.031073,4.05025253 C7.42159729,3.65972824 8.05476227,3.65972824 8.44528656,4.05025253 L12.6879272,8.29289322 C12.8831894,8.48815536 12.9808205,8.74407768 12.9808205,9 C12.9808205,9.25592232 12.8831894,9.51184464 12.6879272,9.70710678 L8.44528656,13.9497475 C8.05476227,14.3402718 7.42159729,14.3402718 7.031073,13.9497475 C6.6405487,13.5592232 6.6405487,12.9260582 7.031073,12.5355339 L9.5666069,10 Z"></path>
                        </g>
                    </g>
                </g>
            </g>
        </g>
    </g>
</svg>