<?xml version="1.0" encoding="UTF-8"?>
<svg width="24px" height="24px" viewBox="0 0 24 24" version="1.1" xmlns="http://www.w3.org/2000/svg" xmlns:xlink="http://www.w3.org/1999/xlink">
    <!-- Generator: Sketch 49.3 (51167) - http://www.bohemiancoding.com/sketch -->
    <title>取消授权</title>
    <desc>Created with Sketch.</desc>
    <defs></defs>
    <g id="Page-1" stroke="none" stroke-width="1" fill="none" fill-rule="evenodd">
        <g id="房间控制-选中房间" transform="translate(-1265.000000, -181.000000)" fill="#FF8E00" fill-rule="nonzero">
            <g id="内容区" transform="translate(200.000000, 50.000000)">
                <g id="表格" transform="translate(20.000000, 72.000000)">
                    <g id="取消授权_export" transform="translate(1045.000000, 59.000000)">
                        <path d="M16.4311939,16.1391821 L12.811461,20.5203147 C12.6530494,20.7076581 12.4312732,20.8163172 12.1918956,20.8163172 C11.9525181,20.8163172 11.7272216,20.7114049 11.5723302,20.5203147 L3.38421002,10.6098484 C3.15891349,10.3363271 3.11315015,9.94665277 3.27156176,9.62442211 L5.46079274,5.16878088 L3.14662914,2.85461728 C2.95112362,2.65911176 2.95112362,2.34213467 3.14662914,2.14662914 C3.34213467,1.95112362 3.65911176,1.95112362 3.85461728,2.14662914 L20.8463326,19.1383445 C21.0418382,19.33385 21.0418382,19.6508271 20.8463326,19.8463326 C20.6508271,20.0418382 20.33385,20.0418382 20.1383445,19.8463326 L16.4311939,16.1391821 Z M12.8050867,12.5130748 L12.1854713,13.334568 L8.45724488,8.39164304 C8.1882621,8.03188505 7.7253615,8.00565265 7.42510166,8.32793588 C7.12484182,8.65021911 7.09982015,9.20484603 7.37193064,9.56460402 L11.6412503,15.227045 C11.7819971,15.4106714 11.9790427,15.5156008 12.1854713,15.5156008 C12.3950277,15.5156008 12.5920732,15.4106714 12.7296923,15.227045 L13.9287434,13.6367316 L12.8050867,12.5130748 Z M17.6990848,14.6045943 L15.1334319,12.0389414 L16.999012,9.56460402 C17.180419,9.33226031 17.2398454,9.00622962 17.1616527,8.7064313 C17.0803323,8.40663298 16.8739037,8.17803675 16.614304,8.1143296 C16.3547044,8.04687496 16.0888493,8.15555184 15.9136977,8.39164304 L14.0100334,10.9155429 L6.38410215,3.28961167 L6.39755091,3.26224004 C6.53836122,2.97373119 6.81998186,2.7938815 7.12624431,2.7938815 L17.2505064,2.7938815 C17.5567689,2.79388154 17.8383895,2.97373119 17.9791998,3.26224004 L21.105189,9.62442211 C21.2636006,9.9466528 21.2213575,10.3363271 20.9995813,10.6098484 L17.6990848,14.6045943 Z" id="取消授权"></path>
                    </g>
                </g>
            </g>
        </g>
    </g>
</svg>