<?xml version="1.0" encoding="UTF-8"?>
<svg width="24px" height="24px" viewBox="0 0 24 24" version="1.1" xmlns="http://www.w3.org/2000/svg" xmlns:xlink="http://www.w3.org/1999/xlink">
    <!-- Generator: Sketch 49.3 (51167) - http://www.bohemiancoding.com/sketch -->
    <title>播放</title>
    <desc>Created with Sketch.</desc>
    <defs></defs>
    <g id="Page-1" stroke="none" stroke-width="1" fill="none" fill-rule="evenodd">
        <g id="房间管理-录制管理-视频列表" transform="translate(-1043.000000, -180.000000)">
            <g id="内容区" transform="translate(200.000000, 50.000000)">
                <g id="表格" transform="translate(20.000000, 72.000000)">
                    <g id="播放_export" transform="translate(823.000000, 58.000000)">
                        <g id="播放" transform="translate(3.000000, 3.000000)">
                            <g transform="translate(0.000000, 0.500000)">
                                <path d="M2,1.52003246 C1.44771525,1.52003246 1,1.96774771 1,2.52003246 L1,13.5201416 C1,14.0724264 1.44771525,14.5201416 2,14.5201416 L16,14.5201416 C16.5522847,14.5201416 17,14.0724264 17,13.5201416 L17,2.52003246 C17,1.96774771 16.5522847,1.52003246 16,1.52003246 L2,1.52003246 Z M2.5,1.50610352 L15.5,1.50610352 C16.3284271,1.50610352 17,2.17767639 17,3.00610352 L17,13.0061035 C17,13.8345306 16.3284271,14.5061035 15.5,14.5061035 L2.5,14.5061035 C1.67157288,14.5061035 1,13.8345306 1,13.0061035 L1,3.00610352 C1,2.17767639 1.67157288,1.50610352 2.5,1.50610352 Z" id="Combined-Shape" stroke="#FF0047" stroke-width="2"></path>
                                <path d="M9.80237448,5.43681307 L10.6939296,10.7594949 C10.7121771,10.8684342 10.6386568,10.9715394 10.5297176,10.9897869 C10.507814,10.9934558 10.4854523,10.9934508 10.4635504,10.9897722 L5.14294209,10.0961435 C5.03401089,10.0778479 4.96053627,9.97471011 4.97883193,9.86577891 C4.98572222,9.82475459 5.00523308,9.78689967 5.03464796,9.75748478 L9.4637011,5.32843165 C9.54180595,5.25032679 9.66843895,5.25032679 9.74654381,5.32843165 C9.77598007,5.35786791 9.79549736,5.39575589 9.80237448,5.43681307 Z" id="Rectangle-10" fill="#FF0047" transform="translate(7.750275, 8.045074) rotate(-45.000000) translate(-7.750275, -8.045074) "></path>
                            </g>
                        </g>
                    </g>
                </g>
            </g>
        </g>
    </g>
</svg>