<?xml version="1.0" encoding="UTF-8"?>
<svg width="24px" height="24px" viewBox="0 0 24 24" version="1.1" xmlns="http://www.w3.org/2000/svg" xmlns:xlink="http://www.w3.org/1999/xlink">
    <!-- Generator: Sketch 49.3 (51167) - http://www.bohemiancoding.com/sketch -->
    <title>预览-灰</title>
    <desc>Created with Sketch.</desc>
    <defs></defs>
    <g id="Page-1" stroke="none" stroke-width="1" fill="none" fill-rule="evenodd">
        <g id="房间控制-选中房间" transform="translate(-1026.000000, -380.000000)" fill="#CCCCCC">
            <g id="内容区" transform="translate(200.000000, 50.000000)">
                <g id="表格" transform="translate(20.000000, 72.000000)">
                    <g id="预览-灰_export" transform="translate(806.000000, 258.000000)">
                        <g id="预览-灰" transform="translate(3.000000, 3.000000)">
                            <path d="M15.5850229,0 L2.41495609,0 C1.08188721,0.00156592723 0.00159613197,1.06140026 0,2.36924631 L0,15.6307537 C0.00157513645,16.9385998 1.08186622,17.9984341 2.41495609,18 L12.2388306,18 C12.7278442,18 13.0021973,17.37893 13.0021973,17.0210571 C13.0021973,16.6631843 12.7531738,16.0266113 12.2388306,16.0266113 L3.08642578,16.0266113 C2.48214072,16.0259932 1.99244151,15.5455465 1.99181146,14.952725 L1.99181146,3.09936523 C1.99181146,2.50718244 2.48283377,2.02545829 3.08642578,2.02545829 L14.913208,2.02545827 C15.5168,2.02545827 16.0078223,2.50718242 16.0078223,3.09936521 L16.0078223,12.307312 C16.0216503,12.7666952 16.6658935,13.0015259 17.0230713,13.0015259 C17.3802701,13.0015259 17.9869621,12.7404474 18,12.307312 L18,2.36924631 C17.9983829,1.06140026 16.9181128,0.00156592723 15.5850229,0 Z" id="Shape" fill-rule="nonzero"></path>
                            <rect id="Rectangle" transform="translate(13.925293, 13.931641) rotate(-45.000000) translate(-13.925293, -13.931641) " x="12.925293" y="9.93164062" width="2" height="8" rx="1"></rect>
                            <path d="M9.00197988,4 C11.7573704,4 13.9994159,6.24316349 13.9994159,9.00001321 C13.9994159,11.7568101 11.7573968,14 9.00197988,14 C6.24656296,14 4.00525679,11.7568101 4.00525679,9.00001321 C4.00525679,6.24318991 6.24653657,4 9.00197988,4 Z M9.00212247,6 C7.34885648,6 6.00408862,7.34591394 6.00408862,9.00000792 C6.00408862,10.6540861 7.34887232,12 9.00212247,12 C10.6553726,12 12.0005841,10.6540861 12.0005841,9.00000792 C12.0005841,7.3458981 10.6553568,6 9.00212247,6 Z" id="Combined-Shape" fill-rule="nonzero"></path>
                        </g>
                    </g>
                </g>
            </g>
        </g>
    </g>
</svg>