<?xml version="1.0" encoding="UTF-8"?>
<svg width="24px" height="24px" viewBox="0 0 24 24" version="1.1" xmlns="http://www.w3.org/2000/svg" xmlns:xlink="http://www.w3.org/1999/xlink">
    <!-- Generator: Sketch 49.3 (51167) - http://www.bohemiancoding.com/sketch -->
    <title>预览</title>
    <desc>Created with Sketch.</desc>
    <defs></defs>
    <g id="Page-1" stroke="none" stroke-width="1" fill="none" fill-rule="evenodd">
        <g id="房间控制-选中房间" transform="translate(-1026.000000, -180.000000)" fill="#EF334E">
            <g id="内容区" transform="translate(200.000000, 50.000000)">
                <g id="表格" transform="translate(20.000000, 72.000000)">
                    <g id="预览_export" transform="translate(806.000000, 58.000000)">
                        <g id="预览" transform="translate(3.000000, 3.000000)">
                            <g id="Combined-Shape">
                                <path d="M13.1674552,11.7595892 L16.7537201,15.3458542 C17.1442444,15.7363785 17.1442444,16.3695435 16.7537201,16.7600677 C16.3631958,17.150592 15.7300308,17.150592 15.3395065,16.7600677 L11.7522762,13.1728375 C10.9628698,13.6954363 10.0172775,14 9.00197988,14 C6.24656296,14 4.00525679,11.7568101 4.00525679,9.00001321 C4.00525679,6.24318991 6.24653657,4 9.00197988,4 C11.7573704,4 13.9994159,6.24316349 13.9994159,9.00001321 C13.9994159,10.019203 13.6929798,10.9681938 13.1674552,11.7595892 Z M15.5850229,0 C16.9181128,0.00156592723 17.9983829,1.06140026 18,2.36924631 L18,12.307312 C17.9869621,12.7404474 17.3802701,13.0015259 17.0230713,13.0015259 C16.6658935,13.0015259 16.0216503,12.7666952 16.0078223,12.307312 L16.0078223,3.09936521 C16.0078223,2.50718242 15.5168,2.02545827 14.913208,2.02545827 L3.08642578,2.02545829 C2.48283377,2.02545829 1.99181146,2.50718244 1.99181146,3.09936523 L1.99181146,14.952725 C1.99244151,15.5455465 2.48214072,16.0259932 3.08642578,16.0266113 L12.2388306,16.0266113 C12.7531738,16.0266113 13.0021973,16.6631843 13.0021973,17.0210571 C13.0021973,17.37893 12.7278442,18 12.2388306,18 L2.41495609,18 C1.08186622,17.9984341 0.00157513645,16.9385998 0,15.6307537 L0,2.36924631 C0.00159613197,1.06140026 1.08188721,0.00156592723 2.41495609,0 L15.5850229,0 Z M9.00212247,6 C7.34885648,6 6.00408862,7.34591394 6.00408862,9.00000792 C6.00408862,10.6540861 7.34887232,12 9.00212247,12 C10.6553726,12 12.0005841,10.6540861 12.0005841,9.00000792 C12.0005841,7.3458981 10.6553568,6 9.00212247,6 Z" fill-rule="nonzero"></path>
                            </g>
                        </g>
                    </g>
                </g>
            </g>
        </g>
    </g>
</svg>