<?xml version="1.0" encoding="UTF-8"?>
<svg width="24px" height="24px" viewBox="0 0 24 24" version="1.1" xmlns="http://www.w3.org/2000/svg" xmlns:xlink="http://www.w3.org/1999/xlink">
    <!-- Generator: Sketch 49.3 (51167) - http://www.bohemiancoding.com/sketch -->
    <title>录制</title>
    <desc>Created with Sketch.</desc>
    <defs></defs>
    <g id="Page-1" stroke="none" stroke-width="1" fill="none" fill-rule="evenodd">
        <g id="房间管理" transform="translate(-1044.000000, -181.000000)" fill="#EF334E" fill-rule="nonzero">
            <g id="内容区">
                <g id="表格" transform="translate(220.000000, 122.000000)">
                    <g id="录制_export" transform="translate(824.000000, 59.000000)">
                        <g id="录制" transform="translate(2.000000, 5.000000)">
                            <path d="M20.3146687,1.2764688 C19.9216471,1.05032275 19.2130043,0.736999511 18.0523382,1.65086615 C16.8916721,2.56473278 15.9311755,3.26293945 14.9979384,3.9701195 L14.9979384,2.0478781 C14.9979384,1.01263175 14.3469964,0 13.3398786,0 L2.00686647,0 C0.928513496,0.0678438141 0.0687787775,0.94478793 0,2.0478781 L0,12.2948749 C0,13.3301212 0.994835889,13.9959957 2.00686647,13.9959957 L13.3398786,13.9959957 C13.7893971,14.0286612 14.2315463,13.860308 14.54842,13.5336526 C14.8677501,13.2069972 15.0298714,12.7547051 14.9979384,12.2948749 L14.9979384,10.1316588 C15.9305653,10.844098 17.22626,11.8166933 18.0940967,12.4760395 C18.5736684,12.8403981 19.1110401,12.971048 19.6760086,12.9911499 C19.8946268,12.9961754 20.1083323,12.9383825 20.2950175,12.8227967 C20.648737,12.6268035 21,12.1669732 21,11.1166504 L21,2.98764056 C20.9975436,1.93731781 20.6634753,1.47748751 20.3146687,1.2764688 Z M12.850897,11.8380239 C12.7372365,11.9624163 12.5762174,12.0204661 12.4170927,11.9935144 L2.90235379,11.9935144 C2.51022503,11.9935144 2.06126602,11.788267 2.06126602,11.3632598 L2.06126602,2.91635703 C2.11241325,2.43330004 2.46097215,2.05390335 2.90235379,2 L12.4170927,2 C12.8054327,2 12.9891839,2.49134981 12.9891839,2.91635703 L12.9891839,11.3632598 C13.017599,11.5374091 12.9645575,11.7136316 12.850897,11.8380239 Z M14.9962299,6.48706055 L18.6757175,3.72709795 C18.7640791,3.66081845 18.8894405,3.6787195 18.95572,3.76708106 C18.9816889,3.80170203 18.9957272,3.84381254 18.9957272,3.88709071 L18.9957272,10.1407413 C18.9957272,10.2511983 18.9061841,10.3407413 18.7957272,10.3407413 C18.752449,10.3407413 18.7103385,10.3267031 18.6757175,10.3007341 L14.9962299,7.54077148 L14.9962299,6.48706055 Z M2.99924598,4.49999999 C2.99924598,3.96550569 3.28469701,3.47119893 3.74704725,3.2019424 C4.2093975,2.93268586 4.78431999,2.93268586 5.24667024,3.2019424 C5.71304092,3.47119893 5.99849195,3.96550569 5.99849195,4.49999999 C5.99849195,5.0344943 5.70902049,5.52880106 5.24667024,5.79805759 C4.78431999,6.06731413 4.2093975,6.06731413 3.74704725,5.79805759 C3.28469701,5.52880106 2.99924598,5.0344943 2.99924598,4.49999999 Z"></path>
                        </g>
                    </g>
                </g>
            </g>
        </g>
    </g>
</svg>