<?xml version="1.0" encoding="UTF-8"?>
<svg width="24px" height="24px" viewBox="0 0 24 24" version="1.1" xmlns="http://www.w3.org/2000/svg" xmlns:xlink="http://www.w3.org/1999/xlink">
    <!-- Generator: Sketch 49.3 (51167) - http://www.bohemiancoding.com/sketch -->
    <title>分享</title>
    <desc>Created with Sketch.</desc>
    <defs></defs>
    <g id="Page-1" stroke="none" stroke-width="1" fill="none" fill-rule="evenodd">
        <g id="房间管理-录制管理-视频列表" transform="translate(-1205.000000, -180.000000)" fill="#FF0047" fill-rule="nonzero">
            <g id="内容区" transform="translate(200.000000, 50.000000)">
                <g id="表格" transform="translate(20.000000, 72.000000)">
                    <g id="分享_export" transform="translate(985.000000, 58.000000)">
                        <path d="M18.3437148,15.9494355 C18.6562344,16.0837573 18.9302958,16.2707234 19.1666283,16.5106094 C19.4026273,16.7508341 19.5865433,17.0294304 19.7187094,17.347076 C19.8505631,17.6647428 19.9166253,18.0071858 19.9166253,18.37413 C19.9166253,18.741413 19.8505423,19.0835384 19.7187094,19.401184 C19.5865641,19.7188507 19.4026273,19.9977647 19.1666283,20.2376506 C18.9302958,20.4778754 18.6562136,20.6648204 18.3437148,20.7988245 C18.0311952,20.9331462 17.6943007,21 17.3333021,21 C16.9719702,21 16.6353881,20.9331674 16.3228894,20.7988245 C16.0103698,20.6647992 15.735975,20.4778754 15.4999759,20.2376506 C15.2636435,19.9977647 15.0797276,19.7188296 14.9478947,19.401184 C14.8157494,19.0835173 14.7499788,18.741413 14.7499788,18.37413 C14.7499788,18.3178856 14.7499788,18.2649446 14.7499788,18.2153072 C14.7499788,18.1659875 14.756833,18.1200136 14.7708329,18.0776608 C14.7708329,18.0214164 14.7740829,17.9684754 14.7812496,17.918838 C14.7881037,17.8695183 14.7984995,17.8235444 14.8124994,17.7811916 L8.47919084,14.0329528 C8.35419132,14.1461193 8.22560849,14.2483588 8.09377568,14.3400102 C7.96163036,14.4319791 7.81936008,14.5061176 7.66669401,14.5623621 C7.51369461,14.6331758 7.3541744,14.6824533 7.18750838,14.7106178 C7.02084237,14.7390789 6.84703055,14.7529706 6.66665625,14.7529706 C6.30532433,14.7529706 5.96157567,14.6824956 5.63541028,14.5412069 C5.30893239,14.4002569 5.02766265,14.2096484 4.79166357,13.9694237 C4.54166455,13.7153072 4.34699864,13.4261015 4.20833252,13.1011713 C4.06933306,12.7765799 4,12.4235274 4,12.0423527 C4,11.6754086 4.06933306,11.3259985 4.20833252,10.9941224 C4.34699864,10.6625639 4.54166455,10.3767041 4.79166357,10.1364794 C5.02766265,9.88236291 5.30891155,9.68482972 5.63541028,9.54354097 C5.9615965,9.40259105 6.30532433,9.33177726 6.66665625,9.33177726 C6.84698888,9.33177726 7.02084237,9.34965012 7.18750838,9.38471819 C7.3541744,9.42010391 7.51369461,9.47306601 7.66669401,9.54354097 C7.81936008,9.60012423 7.96160952,9.67424153 8.09377568,9.76589287 C8.22562933,9.85786185 8.35419132,9.96012254 8.47919084,10.0729502 L14.7500205,6.34590896 C14.7360206,6.30355622 14.7256039,6.25423645 14.7187706,6.19765319 C14.7116248,6.14140875 14.7011874,6.09175016 14.6875208,6.04939741 C14.6875208,5.99315297 14.6839374,5.93656971 14.6771041,5.87998645 C14.6699583,5.82374201 14.6666875,5.76715874 14.6666875,5.71057548 C14.6666875,5.34363132 14.7360206,4.9942212 14.87502,4.66234512 C15.0136861,4.33078668 15.2083521,4.04492685 15.4583511,3.8047021 C15.6943502,3.56481617 15.9755991,3.37058649 16.3020978,3.22235189 C16.628284,3.07409612 16.9720118,3 17.3333437,3 C17.6943423,3 18.038091,3.0741173 18.3645897,3.22235189 C18.6907759,3.37060767 18.972004,3.56481617 19.2083364,3.8047021 C19.4583354,4.04492685 19.652668,4.33080786 19.7916675,4.66234512 C19.9303336,4.99420003 20,5.34363132 20,5.71057548 C20,6.09175016 19.9303336,6.44844495 19.7916675,6.77998221 C19.652668,7.11183712 19.4583354,7.3977393 19.2083364,7.63762523 C18.972004,7.87784999 18.6907551,8.06841615 18.3645897,8.20940843 C18.0381118,8.35069717 17.6943423,8.42117214 17.3333437,8.42117214 C17.1526778,8.42117214 16.9791576,8.40728044 16.8124916,8.37881939 C16.6458256,8.35069717 16.4860137,8.30137741 16.333306,8.23056362 C16.1803066,8.17431918 16.0380571,8.10020188 15.9062243,8.00821173 C15.774079,7.91653922 15.6458087,7.81432087 15.5208092,7.70115435 L9.25002116,11.4070404 C9.26368777,11.4636237 9.2741044,11.5165646 9.28127104,11.5658632 C9.28812518,11.6154795 9.29852097,11.6684416 9.31252091,11.724686 C9.31252091,11.7812693 9.3157709,11.8342102 9.32293754,11.8835088 C9.32979168,11.933125 9.33335417,11.9860871 9.33335417,12.0423316 C9.33335417,12.0989148 9.32977085,12.1554981 9.32293754,12.2117425 C9.31579174,12.2683258 9.31252091,12.3249091 9.31252091,12.3811535 C9.29852097,12.4235062 9.28810434,12.4731225 9.28127104,12.5294093 C9.27412523,12.5859925 9.26368777,12.6353123 9.25002116,12.677665 L15.5833298,16.4259039 C15.6943293,16.3273067 15.8193288,16.2352954 15.9583283,16.1505899 C16.0969944,16.0658844 16.2359939,15.9884424 16.3749933,15.9176286 C16.5276594,15.8613842 16.6839088,15.8190314 16.8437415,15.7905704 C17.0032617,15.7624694 17.1666569,15.7482388 17.3333229,15.7482388 C17.6943007,15.74826 18.031216,15.8154315 18.3437148,15.9494355 Z" id="分享"></path>
                    </g>
                </g>
            </g>
        </g>
    </g>
</svg>