<?xml version="1.0" encoding="UTF-8"?>
<svg width="16px" height="16px" viewBox="0 0 16 16" version="1.1" xmlns="http://www.w3.org/2000/svg" xmlns:xlink="http://www.w3.org/1999/xlink">
    <!-- Generator: Sketch 49.3 (51167) - http://www.bohemiancoding.com/sketch -->
    <title>开始录制</title>
    <desc>Created with Sketch.</desc>
    <defs></defs>
    <g id="Page-1" stroke="none" stroke-width="1" fill="none" fill-rule="evenodd">
        <g id="房间控制-选中房间" transform="translate(-1260.000000, -78.000000)" fill="#FFFFFF" fill-rule="nonzero">
            <g id="内容区" transform="translate(200.000000, 50.000000)">
                <g id="开始录制" transform="translate(1046.000000, 20.000000)">
                    <g id="开始录制_export" transform="translate(14.000000, 8.000000)">
                        <path d="M13.4284058,4.26721191 L12.0422974,5.56767552 L12.0422974,4.378932 C12.0418088,3.657269 11.6306309,3.0080155 10.8892351,3.00730185 L10.1087199,3.00730185 L2.99134521,3.02018026 C2.71805437,3.02298777 2.38476562,2.98752646 2.04756116,3.02097372 C1.53289795,3.03293661 1.00114809,3.49451292 1,4.378932 L1,11.7061768 C1.00073317,12.4278396 1.60169997,13.0126181 2.34309594,13.0130936 L10.8892351,13.0130936 C11.630458,13.0123803 12.0411984,12.4276713 12.0419312,11.7061768 L12.0419312,10.3727071 C12.9475708,11.2957852 13.4003906,11.7573242 13.4003906,11.7573242 C13.4003906,11.7573242 13.647583,11.98349 13.9034424,11.9852905 C14.1397197,11.9868128 14.3821985,11.944822 14.573761,11.8101807 C14.8529264,11.6130648 15,11.1928442 15,10.8421765 L15,5.10855793 C15,4.75789015 14.8785612,4.41507238 14.5993958,4.21795654 C14.3702251,3.97976685 13.8896484,3.85968018 13.4284058,4.26721191 Z M11,11.5994444 C11,11.8203333 10.811,12 10.5786364,12 L2.42177273,12 C2.18899375,12.0000001 2.00022578,11.8207281 2,11.5994444 L2,4.4119084 C2,4.19063062 2.189,4.01096396 2.42177273,4.01096396 L10.5786364,4.01096396 C10.811,4.01096396 11,4.19063062 11,4.4119084 L11,11.5994444 Z M14,10.3898315 C14,10.481289 13.972,10.548957 13.917,10.5912495 C13.846,10.6457011 13.736,10.6541596 13.624,10.6155677 L12,8.89871007 L12,7.08575439 L13.6265,5.38422781 C13.7375,5.34563591 13.8465,5.35568038 13.917,5.4096033 C13.972,5.45136713 14,5.51956376 14,5.6104926 L14,10.3898315 Z M4,7 C3.44771525,7 3,6.55228475 3,6 C3,5.44771525 3.44771525,5 4,5 C4.55228475,5 5,5.44771525 5,6 C5,6.55228475 4.55228475,7 4,7 Z" id="开始录制"></path>
                    </g>
                </g>
            </g>
        </g>
    </g>
</svg>