<?xml version="1.0" encoding="UTF-8"?>
<svg width="16px" height="16px" viewBox="0 0 16 16" version="1.1" xmlns="http://www.w3.org/2000/svg" xmlns:xlink="http://www.w3.org/1999/xlink">
    <!-- Generator: Sketch 49.3 (51167) - http://www.bohemiancoding.com/sketch -->
    <title>一键呼入</title>
    <desc>Created with Sketch.</desc>
    <defs></defs>
    <g id="Page-1" stroke="none" stroke-width="1" fill="none" fill-rule="evenodd">
        <g id="房间控制-选中房间" transform="translate(-1019.000000, -79.000000)" fill="#FFFFFF" fill-rule="nonzero">
            <g id="内容区" transform="translate(200.000000, 50.000000)">
                <g id="一键呼入" transform="translate(806.000000, 20.000000)">
                    <g id="一键呼入_export" transform="translate(13.000000, 9.000000)">
                        <g id="一键呼入" transform="translate(1.000000, 2.000000)">
                            <path d="M12.7358807,11.7264488 C13.2699709,10.8002699 12.974156,10.0888741 12.0283501,9.3771079 C10.916575,8.54038944 9.83004925,7.97752914 9.04878495,8.87911132 C9.04878495,8.87911132 8.21964263,9.86268918 5.77980032,7.56100201 C2.94265657,4.86586423 4.13340696,3.91000157 4.13340696,3.91000157 C5.12016729,2.92139522 4.49286364,2.18396034 3.66530552,1.06701039 C2.8378452,-0.0498616072 2.00187713,-0.403435083 0.801817128,0.557222178 C-1.51076121,2.40843009 1.75006774,6.75503924 3.39882761,8.44523782 L3.39874938,8.44531578 C3.39874938,8.44531578 5.90585169,11.0296122 7.48347908,11.8898945 L8.32742681,12.3601759 C9.53798946,12.9792462 10.8976233,13.2626156 11.8549097,12.6878078 C11.8549292,12.6878077 12.3163418,12.451254 12.7358807,11.7264488 Z M9.49582065,3.88949856 C10.1174067,3.28319433 10.540577,2.92920084 10.8293754,2.70750299 C12.5960961,1.35029874 14,1.91372919 14,1.91372919 C11.5852701,-0.440535744 8.07192546,2.49800707 8.07192546,2.49800707 L6.9254412,1.38091163 L6,6 L10.735197,5.09845232 L9.49582065,3.88949856 Z" id="Shape"></path>
                        </g>
                    </g>
                </g>
            </g>
        </g>
    </g>
</svg>