<?xml version="1.0" encoding="UTF-8"?>
<svg width="24px" height="24px" viewBox="0 0 24 24" version="1.1" xmlns="http://www.w3.org/2000/svg" xmlns:xlink="http://www.w3.org/1999/xlink">
    <!-- Generator: Sketch 49.3 (51167) - http://www.bohemiancoding.com/sketch -->
    <title>呼出-灰</title>
    <desc>Created with Sketch.</desc>
    <defs></defs>
    <g id="Page-1" stroke="none" stroke-width="1" fill="none" fill-rule="evenodd">
        <g id="房间控制-选中房间" transform="translate(-934.000000, -461.000000)" fill="#CCCCCC" fill-rule="nonzero">
            <g id="呼出-灰_export" transform="translate(934.000000, 380.000000)">
                <g id="呼出-灰">
                    <g id="呼出-灰_export" transform="translate(0.000000, 81.000000)">
                        <g id="呼出-灰" transform="translate(3.000000, 3.000000)">
                            <path d="M15.7300823,12.2617971 C14.2761153,11.166959 12.8554603,10.430742 11.8345482,11.6109661 C11.8345482,11.6109661 10.7509313,12.8974484 7.55886633,9.88806654 C3.84752749,6.36257381 5.40534923,5.11214339 5.40534923,5.11214339 C6.69471616,3.81996871 5.87563504,2.85415827 4.79397768,1.39500654 C3.71232032,-0.0660426524 2.61890581,-0.527127009 1.04932692,0.728995806 C-1.97617846,3.14826558 2.28774622,8.83307517 4.44518237,11.0436236 C4.44518237,11.0436236 7.72346637,14.4230114 9.78684536,15.5482091 L10.8900575,16.1629882 C12.473353,16.9732064 14.2506415,17.3432124 15.5027775,16.5918156 C15.5027775,16.5918156 16.1063109,16.2825286 16.6549777,15.3337954 C17.3525683,14.1232117 16.9665421,13.1934532 15.7300823,12.2617971 Z" id="Shape-Copy-9"></path>
                            <path d="M14.6693009,6.90301562 L15.9586626,8.46613798 L17,2 L11.6729483,3.26227036 L13.0680851,4.95401786 C12.3696049,5.80207169 11.8917933,6.29913153 11.5671733,6.60870388 C9.5775076,8.50755964 8,7.72054824 8,7.72054824 C10.7155015,11.0168398 14.6693009,6.90301562 14.6693009,6.90301562 Z" id="Shape-Copy-8"></path>
                        </g>
                    </g>
                </g>
            </g>
        </g>
    </g>
</svg>